<?xml version="1.0" encoding="utf-8"?>
<!-- Generator: Adobe Illustrator 24.1.0, SVG Export Plug-In . SVG Version: 6.00 Build 0)  -->
<svg version="1.1" id="圖層_1" xmlns="http://www.w3.org/2000/svg" xmlns:xlink="http://www.w3.org/1999/xlink" x="0px" y="0px"
	 viewBox="0 0 211 56" style="enable-background:new 0 0 211 56;" xml:space="preserve">
<style type="text/css">
	.st0{fill:#26B7BC;}
	.st1{fill:#FFFFFF;}
	.st2{opacity:0.3;fill:#FFFFFF;}
</style>
<g>
	<g>
		<g>
			<path class="st0" d="M88.2,15c0.4,0,0.6,0.2,0.5,0.6l-0.5,2c-0.1,0.4-0.3,0.6-0.7,0.6h-6.3l0.9,0.2c1.2,0.3,1.4,0.9,0.7,1.9
				L82,21.5h4.1c0.4,0,0.5,0.2,0.5,0.6l-0.5,2c-0.1,0.4-0.3,0.6-0.7,0.6h-8.5v2.5h10.5c0.4,0,0.6,0.2,0.5,0.6l-0.5,2
				c-0.1,0.4-0.3,0.6-0.7,0.6h-9.9v3.9c0,0.4-0.2,0.6-0.6,0.5l-2.6-0.5C73.2,34.2,73,34,73,33.6v-3.3H62.9c-0.4,0-0.6-0.2-0.5-0.6
				l0.5-2c0.1-0.4,0.3-0.6,0.7-0.6h9.6v-2.5h-8.6c-0.4,0-0.5-0.2-0.5-0.6l0.5-2c0.1-0.4,0.3-0.6,0.7-0.6h3l-0.5-1.1
				c-0.5-1.1-0.2-1.8,1-2.1l0.5-0.2h-7c-0.4,0-0.6-0.2-0.5-0.6l0.5-2c0.1-0.4,0.3-0.6,0.7-0.6h10.4v-2.3h-7.9
				c-0.4,0-0.6-0.2-0.5-0.6l0.4-2c0.1-0.4,0.3-0.6,0.7-0.6h7.3V7.4c0-0.4,0.2-0.6,0.6-0.5l2.6,0.5c0.4,0.1,0.6,0.3,0.6,0.7v1.5h8.3
				c0.4,0,0.6,0.2,0.5,0.6l-0.4,2c-0.1,0.4-0.3,0.6-0.7,0.6h-7.6V15H88.2z M70.2,21.5h8.1l1.6-3.4h-9.3l0.7,1.4
				c0.4,0.9,0.2,1.5-0.8,1.8L70.2,21.5z"/>
			<path class="st0" d="M102.6,22c0-0.6,0.3-1,1-1h13.6c1,0,1.4,0.5,1.4,1.4V32c0,1-0.5,1.4-1.4,1.4H104c-1,0-1.4-0.5-1.4-1.4v-8.5
				l-0.3,0.5c-0.7,1-1.5,1-2.2,0.1L99,22.7v11.5c0,0.4-0.2,0.6-0.6,0.5L96,34.3c-0.4-0.1-0.6-0.3-0.6-0.7v-8.8l-2.6,2.1
				c-0.3,0.2-0.5,0.2-0.6-0.2l-0.8-2.6c-0.1-0.4,0-0.7,0.3-0.9c0.9-0.5,2-1.5,3.3-3c1.4-1.5,2.4-2.9,3-4.2c0.3-0.5,0.1-0.7-0.4-0.7
				h-5.2c-0.4,0-0.6-0.2-0.5-0.6l0.5-2.1c0.1-0.4,0.3-0.6,0.7-0.6H96l-2-3.7c-0.2-0.3-0.1-0.6,0.3-0.6l2-0.4
				c0.4-0.1,0.7,0.1,0.9,0.4l1.1,1.9c0.5,0.8,0.3,1.5-0.6,1.9L96.6,12l3.6-0.2c0.4,0,0.7,0.1,1,0.4l1,1.1c0.3,0.3,0.3,0.6,0.2,1
				c-0.5,1.4-1.3,3-2.6,5C100.2,20,101.2,20.8,102.6,22z M102.5,10.3l0.4-1.9c0.1-0.4,0.3-0.6,0.7-0.6h14.5c0.4,0,0.6,0.2,0.5,0.6
				l-0.4,1.9c-0.1,0.4-0.3,0.6-0.7,0.6H103C102.6,10.9,102.4,10.7,102.5,10.3z M104.1,13.6c0-1,0.5-1.4,1.4-1.4h10.3
				c1,0,1.4,0.5,1.4,1.4v4.6c0,1-0.5,1.4-1.4,1.4h-10.3c-1,0-1.4-0.5-1.4-1.4V13.6z M108.8,23.9h-3v2h3V23.9z M105.9,28.6v1.3
				c0,0.5,0.3,0.8,0.8,0.8h2.2v-2.1C108.9,28.6,105.9,28.6,105.9,28.6z M115.1,25.9v-1.2c0-0.5-0.3-0.8-0.8-0.8H112v2H115.1z
				 M112,30.7h2.3c0.5,0,0.8-0.3,0.8-0.8v-1.3H112V30.7z M106.5,15.1c-0.4,0.3-0.4,1,0,1.3c2.5,1.9,5,0.8,6.2,0c0.3-0.2,0.7-0.2,1,0
				l1.5,1l-0.5-1c-0.2-0.4-0.2-0.9,0-1.4l0.5-0.9c0,0-0.8,0.6-1.5,1c-0.3,0.2-0.7,0.2-1,0C109.9,13.2,107.6,14.2,106.5,15.1z"/>
			<path class="st0" d="M134.3,6.7c0.2-0.3,0.5-0.3,0.9-0.1l2,1.2c0.3,0.2,0.4,0.5,0.1,0.8c1.5,1.1,3.4,2.2,5.7,3.3
				c2.3,1,4.4,1.7,6.3,2.2c0.4,0.1,0.4,0.3,0.2,0.5l-2,2c-0.3,0.3-0.6,0.4-1,0.2c-0.2-0.1-0.9-0.4-2.1-0.8v8.3c0,1-0.5,1.4-1.4,1.4
				h-13v4.2c0,0.5,0.3,0.7,0.8,0.7l5.6-0.6c0.4,0,0.5,0.1,0.4,0.5l-0.6,2c-0.1,0.4-0.5,0.6-1,0.7c-2.8,0.4-4.8,0.7-6,0.9l-1.9,0.5
				c-0.4,0.1-0.6-0.1-0.8-0.5l-0.7-1.8c-0.1-0.4-0.1-0.7,0.2-1.1c0.3,0,0.5-0.5,0.5-1.7V15.9c-1.1,0.4-1.8,0.8-2.3,0.9
				c-0.3,0.1-0.6,0-0.8-0.4l-1.1-2c-0.2-0.3-0.1-0.6,0.3-0.7c1.9-0.5,4.1-1.5,6.5-2.9C131.5,9.5,133.2,8.1,134.3,6.7z M126.8,15.8
				H144l-4.5-2.3c0,1-0.5,1.4-1.4,1.4h-5.2c-1,0-1.4-0.5-1.4-1.6L126.8,15.8z M140.6,19.6v-0.5c0-0.5-0.3-0.8-0.8-0.8h-9.1
				c-0.5,0-0.8,0.3-0.8,0.8v0.5H140.6z M130,23.1h9.9c0.5,0,0.8-0.3,0.8-0.8v-0.5H130V23.1z M132.6,12.6h5.4c-1-0.6-1.9-1.3-2.8-2
				C134.4,11.3,133.5,11.9,132.6,12.6z M144.9,25.2c0.3-0.3,0.6-0.2,0.8,0.1l1.4,1.6c0.2,0.3,0.2,0.6-0.2,0.8
				c-0.7,0.5-1.9,1.2-3.6,2.1c1.6,0.9,2.8,1.6,3.5,2.2c0.3,0.2,0.3,0.4,0,0.6l-2,1.4c-0.3,0.2-0.6,0.2-0.9,0c-0.6-0.5-2-1.4-4.2-2.7
				s-4.1-2.3-5.7-3.1c-0.3-0.2-0.3-0.4,0-0.6l1.9-1.2c0.3-0.2,0.7-0.2,1.1,0c0.9,0.4,2,0.9,3.3,1.6
				C142.3,27.1,143.8,26.2,144.9,25.2z"/>
			<path class="st0" d="M164.5,21.4c0.2,0.2,0.2,0.4-0.1,0.7l-1.7,1.7c-0.3,0.3-0.5,0.3-0.7-0.1l-1.9-2.6v13c0,0.4-0.2,0.6-0.6,0.5
				l-2.5-0.5c-0.4-0.1-0.6-0.3-0.6-0.7V23.1c-1.2,3-2.3,5.1-3.4,6.4c-0.2,0.2-0.3,0.2-0.5-0.2l-1.1-2.9c-0.1-0.4-0.1-0.7,0.2-1
				c0.6-0.6,1.3-1.8,2.2-3.6c0.9-1.8,1.6-3.7,2.1-5.5h-3.6c-0.4,0-0.6-0.2-0.5-0.6l0.5-2.3c0.1-0.4,0.3-0.6,0.7-0.6h3.4V7.2
				c0-0.4,0.2-0.6,0.6-0.5l2.5,0.5c0.4,0.1,0.6,0.3,0.6,0.7v5h3.2c0.4,0,0.6,0.2,0.5,0.6l-0.5,2.3c-0.1,0.4-0.3,0.6-0.7,0.6H160V17
				c0.5,0.4,1.3,1.2,2.4,2.3C163.6,20.4,164.2,21.1,164.5,21.4z M178.9,12.8c0.4,0,0.6,0.2,0.5,0.6l-0.5,2.3
				c-0.1,0.4-0.3,0.6-0.7,0.6h-1.6v14.1c0,1-0.1,1.8-0.4,2.3c-0.2,0.5-0.7,1-1.3,1.2c-0.9,0.5-2.5,0.7-4.8,0.7c-0.6,0-0.9-0.2-1-0.5
				l-0.5-2.4c-0.1-0.4,0.1-0.6,0.5-0.5c0.4,0,1.4,0,3,0c0.3,0,0.5-0.1,0.6-0.2s0.2-0.3,0.2-0.5v-9.2c-2.4,3.8-4.9,6.8-7.6,8.8
				c-0.3,0.2-0.5,0.2-0.7-0.2l-1.5-2.3c-0.2-0.3-0.2-0.6,0.2-0.8c1.2-0.7,2.7-2.1,4.4-4.1s3.1-4.2,4.2-6.4h-6.3
				c-0.4,0-0.6-0.2-0.5-0.6l0.5-2.3c0.1-0.4,0.3-0.6,0.7-0.6h6.8V7.3c0-0.4,0.2-0.6,0.6-0.5l2.7,0.5c0.4,0.1,0.6,0.3,0.6,0.7v4.9
				L178.9,12.8L178.9,12.8z"/>
		</g>
	</g>
	<g>
		<g>
			<g>
				<path class="st0" d="M196.3,44.2c-0.2,0.1-0.3,0.2-0.6,0.2s-0.4-0.1-0.6-0.2c-0.2-0.1-0.2-0.3-0.2-0.6s0.1-0.4,0.2-0.6
					s0.3-0.2,0.6-0.2s0.4,0.1,0.6,0.2s0.2,0.3,0.2,0.6S196.4,44,196.3,44.2z"/>
				<path class="st0" d="M202,44.2c-0.2,0.1-0.3,0.2-0.6,0.2s-0.4-0.1-0.6-0.2c-0.2-0.1-0.2-0.3-0.2-0.6s0.1-0.4,0.2-0.6
					s0.3-0.2,0.6-0.2s0.4,0.1,0.6,0.2s0.2,0.3,0.2,0.6S202.2,44,202,44.2z"/>
				<path class="st0" d="M207.7,44.2c-0.2,0.1-0.3,0.2-0.6,0.2s-0.4-0.1-0.6-0.2c-0.2-0.1-0.2-0.3-0.2-0.6s0.1-0.4,0.2-0.6
					s0.3-0.2,0.6-0.2s0.4,0.1,0.6,0.2s0.2,0.3,0.2,0.6S207.9,44,207.7,44.2z"/>
			</g>
		</g>
		<g>
			<g>
				<path class="st0" d="M63.9,44.2c-0.2,0.1-0.3,0.2-0.6,0.2s-0.4-0.1-0.6-0.2c-0.2-0.1-0.2-0.3-0.2-0.6s0.1-0.4,0.2-0.6
					s0.3-0.2,0.6-0.2s0.4,0.1,0.6,0.2c0.2,0.2,0.2,0.3,0.2,0.6S64,44,63.9,44.2z"/>
				<path class="st0" d="M69.6,44.2c-0.2,0.1-0.3,0.2-0.6,0.2s-0.4-0.1-0.6-0.2c-0.2-0.1-0.2-0.3-0.2-0.6s0.1-0.4,0.2-0.6
					s0.3-0.2,0.6-0.2s0.4,0.1,0.6,0.2s0.2,0.3,0.2,0.6S69.7,44,69.6,44.2z"/>
				<path class="st0" d="M75.3,44.2c-0.2,0.1-0.3,0.2-0.6,0.2s-0.4-0.1-0.6-0.2C74,44,74,43.8,74,43.6s0.1-0.4,0.2-0.6
					s0.3-0.2,0.6-0.2s0.4,0.1,0.6,0.2s0.2,0.3,0.2,0.6S75.5,44,75.3,44.2z"/>
			</g>
		</g>
	</g>
	<g>
		<g>
			<path class="st0" d="M182.3,27.2c0.1-0.6,0.3-0.8,0.6-0.7l1.4,0.8c0.4,0.2,0.5,0.5,0.5,1c-0.1,1.9-0.5,3.7-1,5.3
				c-0.1,0.3-0.3,0.4-0.6,0.2l-1.3-0.8c-0.3-0.2-0.5-0.4-0.4-0.7C181.9,31.4,182.1,29.7,182.3,27.2z M207.3,7.9c1,0,1.5,0.5,1.5,1.5
				L208.5,33c-0.2,0.4-0.5,0.8-0.9,1c-0.7,0.4-1.8,0.6-3.3,0.6c-0.6,0-0.9-0.2-0.9-0.6l-0.2-1.8c0-0.4,0.2-0.6,0.6-0.6h1.3
				c0.3,0,0.5-0.1,0.5-0.5V11.7c0-0.5-0.3-0.8-0.8-0.8h-8.1c-0.5,0-0.8,0.3-0.8,0.8V34c0,0.4-0.2,0.6-0.6,0.5l-2-0.4
				c-0.4-0.1-0.6-0.3-0.6-0.7V24l-0.8,0.3c-1.1,0.5-1.8,0.3-1.9-0.6c-4.3,0.7-6.7,1.2-7.3,1.5c-0.1,0-0.3-0.1-0.3-0.5L182,23
				c-0.1-0.4,0-0.6,0.1-0.8c0.5,0,1.7-1.5,3.6-4.4c-1.8,0.2-2.8,0.4-3.1,0.5c-0.2,0.1-0.3-0.1-0.4-0.4l-0.4-1.9
				c-0.1-0.4,0-0.7,0.3-1c-0.1,0.2,0.2-0.1,0.8-1c0.4-0.5,0.9-1.5,1.6-3c0.7-1.5,1.2-2.7,1.6-3.8c0.1-0.4,0.4-0.5,0.7-0.2l1.6,1.2
				c0.3,0.2,0.4,0.5,0.2,0.9c-0.9,2-1.8,3.8-2.9,5.4c-0.3,0.5-0.2,0.7,0.3,0.7l1.3-0.1l1.9-3.7c0.2-0.3,0.4-0.4,0.7-0.1l1.4,1.4
				c0.3,0.3,0.3,0.6,0.2,1c-1.3,2.5-3,5.1-5,7.5c-0.4,0.5-0.3,0.7,0.2,0.6l2.5-0.4l-0.5-1.5c-0.1-0.4,0-0.6,0.4-0.6l1.3-0.2
				c0.4,0,0.7,0.1,0.8,0.5l1.5,4.1V9.3c0-1,0.5-1.4,1.4-1.4H207.3z M185.7,27.4c-0.1-0.5,0.1-0.7,0.5-0.7h1.2c0.4,0,0.6,0.2,0.7,0.6
				l0.6,4.5c0,0.4-0.1,0.6-0.5,0.6l-1.3,0.1c-0.4,0-0.6-0.2-0.6-0.5C186.2,30.9,186.1,29.4,185.7,27.4z M189,26.5
				c-0.1-0.4,0-0.6,0.4-0.6l1.1-0.1c0.4,0,0.7,0.2,0.8,0.5l1.2,3.9c0.1,0.4-0.1,0.6-0.4,0.6l-1.3,0.2c-0.4,0-0.6-0.1-0.8-0.5
				L189,26.5z M200.9,26.7l3.2-0.2c0.4,0,0.6,0.2,0.5,0.6l-0.2,1.3c-0.1,0.4-0.3,0.6-0.7,0.6l-0.6,0.1h-2.5c-1.2,0-2-0.2-2.5-0.7
				c-0.4-0.5-0.6-1.4-0.6-2.6l-0.3-1.8c-0.4,0-0.6-0.2-0.5-0.6l0.4-1.5c0.1-0.4,0.3-0.6,0.7-0.6h1.8l-0.2-0.6
				c-0.3-0.9,0-1.5,0.9-1.8l0.4-0.1h-3.6c-0.4,0-0.6-0.2-0.5-0.6l0.4-1.5c0.1-0.4,0.3-0.6,0.7-0.6h0.4c-0.1-1.2-0.4-2.2-0.9-3.2
				c-0.2-0.4,0-0.7,0.4-0.7l1-0.1c0.4,0,0.7,0.2,0.8,0.6l0.5,1.4c0.3,0.9,0,1.5-0.9,1.8l-0.4,0.1h2.6l0.9-3.9
				c0.1-0.4,0.3-0.5,0.6-0.3l1.2,0.7c0.3,0.2,0.5,0.5,0.3,0.8l-0.8,2.7h0.9c0.4,0,0.6,0.2,0.5,0.6l-0.4,1.5
				c-0.1,0.4-0.3,0.6-0.7,0.6h-2.3l0.3,0.7c0.4,0.9,0.2,1.5-0.6,1.8h3.1c0.4,0,0.6,0.2,0.5,0.6l-0.4,1.5c-0.1,0.4-0.3,0.6-0.7,0.6
				h-3.3v2.5C200.5,26.6,200.6,26.7,200.9,26.7z"/>
		</g>
	</g>
	<g>
		<path class="st0" d="M82.8,40.7c0.1-0.1,0.1-0.1,0.2-0.1l0.4,0.3c0.1,0.1,0.1,0.1,0,0.2l-0.9,1.3v6.1c0,0.1-0.1,0.2-0.2,0.1
			L82,48.5c-0.1,0-0.2-0.1-0.2-0.2v-4.9c-0.4,0.4-0.7,0.7-1,1c-0.1,0.1-0.2,0-0.2-0.1l-0.2-0.5c0-0.1,0-0.2,0.1-0.3
			c0.3-0.3,0.8-0.7,1.2-1.2C82.2,41.7,82.6,41.2,82.8,40.7z M82.6,38.4c0.1-0.1,0.1-0.1,0.2,0l0.4,0.3c0.1,0.1,0.1,0.1,0,0.2
			c-0.5,0.8-1.3,1.6-2.3,2.3c-0.1,0.1-0.2,0.1-0.2,0l-0.2-0.4c0-0.1,0-0.2,0.1-0.3c0.3-0.2,0.6-0.5,1-0.9
			C82.1,39.1,82.4,38.7,82.6,38.4z M89.4,44.1c0.1,0,0.2,0,0.3,0.1l0.2,0.2c0.1,0.1,0.1,0.2,0,0.3c-0.4,0.8-1.1,1.6-2.1,2.3
			c1,0.5,2,0.8,3,1c0.1,0,0.1,0.1,0,0.1l-0.5,0.4c-0.1,0.1-0.2,0.1-0.3,0.1c-1-0.2-2-0.6-3-1.2c-1,0.5-2.1,0.9-3.3,1.2
			c-0.1,0-0.2,0-0.2-0.1L83.4,48c0-0.1,0-0.2,0.1-0.2c0.9-0.2,1.8-0.5,2.8-0.9c-0.5-0.4-1-0.8-1.3-1.2c-0.2,0.2-0.5,0.4-0.8,0.6
			c-0.1,0.1-0.2,0.1-0.3,0l-0.3-0.5c-0.1-0.1,0-0.2,0.1-0.3c0.2-0.1,0.4-0.3,0.7-0.5l-0.5-0.7c-0.1-0.1,0-0.1,0.1-0.1h0.5
			c0.1,0,0.2,0,0.3,0.1l0.2,0.3c0.5-0.5,0.8-0.9,1.1-1.4c-1.3,0.1-2,0.1-2.2,0.2c0,0-0.1,0-0.1-0.1l-0.1-0.5c0-0.1,0-0.2,0.1-0.2
			c0.3,0,1.2-0.5,2.7-1.4c-1.3,0.1-2.1,0.1-2.2,0.2c0,0-0.1,0-0.1-0.1l-0.1-0.5c0-0.1,0-0.2,0.1-0.2c0.2,0,0.7-0.4,1.6-1.1
			c0.4-0.4,0.7-0.7,1-1c0.1-0.1,0.2-0.1,0.3,0l0.4,0.3c0.1,0.1,0.1,0.1,0,0.2c-0.6,0.6-1.2,1.1-2,1.6l2.1-0.1l1.5-1.1
			c0.1-0.1,0.2-0.1,0.3,0l0.4,0.4c0.1,0.1,0.1,0.1,0,0.2c-1.2,0.9-2.6,1.8-4,2.5l3.8-0.2l-0.7-0.8c-0.1-0.1-0.1-0.1,0.1-0.1l0.5-0.1
			c0.1,0,0.2,0,0.3,0.1c0.7,0.7,1.2,1.3,1.6,2c0.1,0.1,0,0.1-0.1,0.2l-0.5,0.1c-0.1,0-0.2,0-0.3-0.1L89.7,43L87,43.2l-0.6,0.9
			L89.4,44.1z M88.8,45c0.1-0.1,0-0.2-0.1-0.2H86l-0.4,0.5c0.5,0.5,1,0.9,1.6,1.2C87.9,46,88.4,45.5,88.8,45z"/>
		<path class="st0" d="M104.7,40.1v-0.6h-4.6c-0.1,0-0.2-0.1-0.1-0.2l0.1-0.3c0-0.1,0.1-0.2,0.2-0.2h4.4v-0.5c0-0.1,0.1-0.2,0.2-0.1
			l0.5,0.1c0.1,0,0.2,0.1,0.2,0.2v0.3h4.7c0.1,0,0.2,0.1,0.1,0.2l-0.1,0.3c0,0.1-0.1,0.2-0.2,0.2h-4.4v0.6h3.8
			c0.1,0,0.2,0.1,0.1,0.2l-0.1,0.2c0,0.1-0.1,0.2-0.2,0.2H101c-0.1,0-0.2-0.1-0.1-0.2l0.1-0.2c0-0.1,0.1-0.2,0.2-0.2H104.7z
			 M105.6,47.8h4.7c0.1,0,0.2,0.1,0.1,0.2l-0.1,0.3c0,0.1-0.1,0.2-0.2,0.2h-9.9c-0.1,0-0.2-0.1-0.1-0.2l0.1-0.3
			c0-0.1,0.1-0.2,0.2-0.2h4.4v-0.6h-3.4c-0.1,0-0.2-0.1-0.1-0.2l0.1-0.2c0-0.1,0.1-0.2,0.2-0.2h3.2V46c-1.7,0-2.7,0.1-2.9,0.1
			c0,0,0-0.1,0-0.2v-0.3c0-0.1,0-0.2,0.1-0.2c0.2,0,0.8-0.2,1.5-0.7h-1.9c-0.1,0-0.2-0.1-0.1-0.2l0.1-0.2c0-0.1,0.1-0.2,0.2-0.2h7
			c0.1,0,0.2,0.1,0.1,0.2l-0.1,0.2c0,0.1-0.1,0.2-0.2,0.2h-1l1.6,1c0.1,0.1,0.1,0.1,0,0.2l-0.4,0.2c-0.1,0-0.2,0-0.3,0l-0.3-0.2
			l-2.6,0.1v0.6h3.6c0.1,0,0.2,0.1,0.1,0.2l-0.1,0.2c0,0.1-0.1,0.2-0.2,0.2h-3.4L105.6,47.8L105.6,47.8z M110.2,44.7
			c0,0.1-0.1,0.2-0.2,0.1l-0.5-0.1c-0.1,0-0.2-0.1-0.2-0.2v-0.4c0-0.1-0.1-0.2-0.2-0.2h-7.9c-0.2,0-0.2,0.1-0.2,0.2v0.6
			c0,0.1-0.1,0.2-0.2,0.1l-0.5-0.1c-0.1,0-0.2-0.1-0.2-0.2v-0.8c0-0.3,0.2-0.5,0.5-0.5h9c0.3,0,0.5,0.2,0.5,0.5L110.2,44.7
			L110.2,44.7z M101.4,41.6c0-0.3,0.2-0.5,0.5-0.5h6.6c0.3,0,0.5,0.2,0.5,0.5v0.7c0,0.3-0.2,0.5-0.5,0.5h-6.6
			c-0.3,0-0.5-0.2-0.5-0.5V41.6z M107.9,42.3c0.2,0,0.2-0.1,0.2-0.2v-0.2c0-0.1-0.1-0.2-0.2-0.2h-5.5c-0.2,0-0.2,0.1-0.2,0.2v0.2
			c0,0.1,0.1,0.2,0.2,0.2H107.9z M106.6,44.9h-2.1l-1.3,0.7l4.2-0.1l-0.4-0.2C106.7,45.1,106.5,44.9,106.6,44.9z"/>
		<path class="st0" d="M122,39.8h-1.1c-0.4,0.6-0.8,1.1-1.2,1.4c-0.1,0.1-0.1,0.1-0.2,0l-0.3-0.4c-0.1-0.1-0.1-0.2,0-0.3
			c0.6-0.5,1.2-1.2,1.5-2.1c0.1-0.1,0.1-0.2,0.2-0.1l0.4,0.2c0.1,0.1,0.1,0.1,0.1,0.2l-0.2,0.4h3c0.1,0,0.2,0.1,0.1,0.2l-0.1,0.4
			c0,0.1-0.1,0.2-0.2,0.2h-2l1,0.9c0.1,0.1,0.1,0.1,0,0.2l-0.4,0.2c-0.1,0-0.2,0-0.3-0.1l-0.5-0.5C121.7,40.3,121.7,40,122,39.8z
			 M124,41C124,40.9,124,40.9,124,41l0.7-0.1c0.1,0,0.2,0,0.3,0.1l0.3,0.6h4c0.3,0,0.5,0.2,0.5,0.5v1.3c0,0.1-0.1,0.2-0.2,0.1
			l-0.6-0.1c-0.1,0-0.2-0.1-0.2-0.2v-0.6c0-0.1-0.1-0.2-0.2-0.2h-7.8c-0.2,0-0.2,0.1-0.2,0.2v0.8c0,0.1-0.1,0.2-0.2,0.1l-0.6-0.1
			c-0.1,0-0.2-0.1-0.2-0.2V42c0-0.3,0.2-0.5,0.5-0.5h4.1L124,41z M122,45.3v0.8h6.4c0.3,0,0.5,0.2,0.5,0.5v1.5
			c0,0.3-0.2,0.5-0.5,0.5h-6.8c-0.3,0-0.5-0.2-0.5-0.5v-4.7c0-0.3,0.2-0.5,0.5-0.5h6.2c0.3,0,0.5,0.2,0.5,0.5v1.4
			c0,0.3-0.2,0.5-0.5,0.5H122z M127.4,43.9c0-0.1-0.1-0.2-0.2-0.2h-4.9c-0.2,0-0.2,0.1-0.2,0.2v0.8h5.1c0.2,0,0.2-0.1,0.2-0.2V43.9z
			 M128,47.1c0-0.1-0.1-0.2-0.2-0.2H122v0.9c0,0.1,0.1,0.2,0.2,0.2h5.5c0.2,0,0.2-0.1,0.2-0.2v-0.7H128z M126.5,39.1h3.6
			c0.1,0,0.2,0.1,0.1,0.2l-0.1,0.4c0,0.1-0.1,0.2-0.2,0.2H126l-0.8,0.8c-0.1,0.1-0.2,0.1-0.2,0l-0.3-0.4c-0.1-0.1-0.1-0.2,0-0.3
			c0.5-0.4,0.9-0.9,1.2-1.6c0-0.1,0.1-0.2,0.2-0.1l0.4,0.2c0.1,0,0.1,0.1,0.1,0.2L126.5,39.1z M127.1,40.2l0.4-0.1
			c0.1,0,0.2,0,0.3,0l1,0.8c0.1,0.1,0.1,0.1,0,0.2l-0.5,0.2c-0.1,0-0.2,0-0.3,0l-0.9-0.8C127,40.3,127,40.2,127.1,40.2z"/>
		<path class="st0" d="M142.2,45.5c0.1,0,0.2,0,0.1,0.1l-0.1,0.6c0,0.1-0.1,0.2-0.3,0.3c-1.8,0.6-2.8,0.9-3,1c0,0,0,0,0-0.2v-0.6
			c0-0.1,0.1-0.2,0.2-0.2l1.2-0.4V43H139c-0.1,0-0.2-0.1-0.1-0.2l0.1-0.5c0-0.1,0.1-0.2,0.2-0.2h1v-2.5h-1.3c-0.1,0-0.2-0.1-0.1-0.2
			l0.1-0.5c0-0.1,0.1-0.2,0.2-0.2h3.1c0.1,0,0.2,0.1,0.1,0.2l-0.1,0.5c0,0.1-0.1,0.2-0.2,0.2h-1v2.5h1c0.1,0,0.2,0.1,0.1,0.2
			l-0.1,0.5c0,0.1-0.1,0.2-0.2,0.2H141v2.8L142.2,45.5z M146.5,47.5h3c0.1,0,0.2,0.1,0.1,0.2l-0.1,0.5c0,0.1-0.1,0.2-0.2,0.2h-7.2
			c-0.1,0-0.2-0.1-0.1-0.2l0.1-0.5c0-0.1,0.1-0.2,0.2-0.2h3.3V46h-2.5c-0.1,0-0.2-0.1-0.1-0.2l0.1-0.5c0-0.1,0.1-0.2,0.2-0.2h2.3
			v-1.3h-2.1c-0.3,0-0.5-0.2-0.5-0.5v-4.1c0-0.3,0.2-0.5,0.5-0.5h5.1c0.3,0,0.5,0.2,0.5,0.5v4.1c0,0.3-0.2,0.5-0.5,0.5h-2.1v1.3h2.6
			c0.1,0,0.2,0.1,0.1,0.2l-0.1,0.5c0,0.1-0.1,0.2-0.2,0.2h-2.4L146.5,47.5L146.5,47.5z M144.1,39.5c-0.2,0-0.2,0.1-0.2,0.2V41h1.8
			v-1.4L144.1,39.5L144.1,39.5z M143.9,41.7v1.2c0,0.1,0.1,0.2,0.2,0.2h1.6v-1.4H143.9z M148.3,41v-1.2c0-0.1-0.1-0.2-0.2-0.2h-1.6
			V41H148.3z M148.1,43.1c0.2,0,0.2-0.1,0.2-0.2v-1.2h-1.8v1.4H148.1z"/>
		<path class="st0" d="M161,45.6c0.1-0.1,0.2-0.1,0.3-0.1l0.5,0.3c0.1,0.1,0.1,0.1,0,0.2c-0.6,0.7-1.3,1.4-2.3,2
			c-0.1,0.1-0.2,0.1-0.3,0l-0.4-0.4c-0.1-0.1-0.1-0.2,0.1-0.2C159.7,47,160.4,46.4,161,45.6z M163.4,40c-1.3,0.3-2.7,0.6-4.2,0.9
			c-0.1,0-0.2,0-0.2-0.1v-0.4c0-0.1,0.1-0.2,0.2-0.2c3.1-0.5,5.4-1.1,6.8-1.8c0.1,0,0.2,0,0.2,0.1l0.3,0.5c0.1,0.1,0.1,0.2,0,0.2
			C165.9,39.3,164.9,39.6,163.4,40z M167.4,44.6l-3.2,0.2v2.8c0,0.3,0,0.4-0.1,0.6c-0.1,0.1-0.2,0.2-0.4,0.3
			c-0.3,0.1-0.8,0.1-1.6,0.1c-0.2,0-0.3,0-0.3-0.2v-0.5c0-0.1,0.1-0.2,0.3-0.2c0.6,0,1,0,1.1-0.1v-0.1v-2.7c-2.4,0.2-3.8,0.3-4,0.4
			c0,0,0,0-0.1-0.2l-0.1-0.5c0-0.1,0-0.2,0.1-0.2c0.2,0,0.6-0.2,1.4-0.5c0.6-0.2,1.5-0.7,2.6-1.3c-2,0.1-3.1,0.2-3.3,0.3
			c0,0-0.1,0-0.1-0.1l-0.1-0.5c0-0.1,0-0.2,0.1-0.2c0.3,0,0.9-0.4,2-1c0.6-0.3,1-0.7,1.4-1c0.1-0.1,0.2-0.1,0.3,0l0.4,0.4
			c0.1,0.1,0.1,0.1,0,0.2c-0.6,0.5-1.3,0.9-2.2,1.3l2.9-0.1l1.2-0.8c0.1-0.1,0.2,0,0.2,0l0.3,0.4c0.1,0.1,0,0.2,0,0.2
			c-1.3,0.9-2.9,1.7-4.7,2.5l5.1-0.3l-1-1c-0.1-0.1-0.1-0.1,0-0.1l0.6-0.1c0.1,0,0.2,0,0.3,0.1c0.8,0.7,1.5,1.4,2,2.1
			c0.1,0.1,0,0.1-0.1,0.2l-0.5,0.2c-0.1,0-0.2,0-0.3-0.1L167.4,44.6z M165.5,46c-0.1-0.1-0.1-0.2,0-0.2l0.6-0.2c0.1,0,0.2,0,0.3,0.1
			c0.9,0.6,1.6,1.2,2.3,1.8c0.1,0.1,0.1,0.1,0,0.2l-0.6,0.2c-0.1,0-0.2,0-0.3,0C167.2,47.3,166.5,46.7,165.5,46z"/>
		<path class="st0" d="M178.1,45.8c0-0.2,0.1-0.2,0.2-0.2l0.4,0.2c0.1,0.1,0.1,0.1,0.1,0.3c-0.1,0.8-0.3,1.5-0.5,2.1
			c0,0.1-0.1,0.1-0.2,0.1l-0.3-0.2c-0.1-0.1-0.1-0.1-0.1-0.2C177.8,47.5,178,46.8,178.1,45.8z M181.9,44.6c0,0.1,0,0.2-0.1,0.2h-0.4
			c-0.1,0-0.2,0-0.2-0.2l-0.1-0.2c-1.9,0.3-3,0.5-3.2,0.6c0,0,0,0-0.1-0.1l-0.1-0.5c0-0.1,0-0.2,0.1-0.2c0,0,0.3-0.2,0.7-0.6
			c0.2-0.3,0.6-0.7,1-1.3c-1,0.1-1.5,0.2-1.6,0.3c0,0-0.1,0-0.1-0.1l-0.1-0.5c0-0.1,0-0.2,0.1-0.3c0,0.1,0.2-0.1,0.4-0.5
			c0.2-0.2,0.4-0.6,0.8-1.2c0.3-0.6,0.6-1.1,0.8-1.5c0-0.1,0.1-0.1,0.2-0.1l0.4,0.3c0.1,0.1,0.1,0.2,0,0.3c-0.5,0.9-1,1.8-1.6,2.5
			c-0.1,0.1-0.1,0.2,0.1,0.2l1-0.1l0.9-1.5c0.1-0.1,0.1-0.1,0.2,0l0.4,0.4c0.1,0.1,0.1,0.2,0,0.3c-0.7,1.2-1.5,2.3-2.4,3.2
			c-0.1,0.1-0.1,0.2,0.1,0.1l1.7-0.2l-0.4-0.9c0-0.1,0-0.1,0.1-0.1h0.4c0.1,0,0.2,0.1,0.3,0.2C181.6,43.4,181.8,44,181.9,44.6z
			 M179.4,45.8c0-0.1,0-0.2,0.1-0.2l0.4,0.1c0.1,0,0.2,0.1,0.2,0.2c0.1,0.6,0.2,1.2,0.2,1.8c0,0.1,0,0.1-0.2,0.1h-0.4
			c-0.1,0-0.2,0-0.2-0.1C179.7,47.2,179.6,46.6,179.4,45.8z M182,47.1c0,0.1,0,0.2-0.1,0.2h-0.4c-0.1,0-0.2-0.1-0.2-0.2l-0.5-1.6
			c0-0.1,0-0.2,0.1-0.2h0.3c0.1,0,0.2,0.1,0.2,0.2L182,47.1z M186.7,47.7h0.8c0.1,0,0.2-0.1,0.3-0.3c0-0.2,0.1-0.5,0.1-1
			c0-0.2,0.1-0.2,0.1-0.2l0.5,0.4c0.1,0.1,0.1,0.2,0.1,0.3c0,0.4-0.1,0.8-0.2,1c-0.1,0.3-0.4,0.4-0.8,0.4h-1c-0.4,0-0.7-0.1-0.8-0.2
			c-0.1-0.2-0.2-0.4-0.2-0.9v-4l-1.1,0.1c0,1.2-0.1,2-0.3,2.6c-0.1,0.5-0.3,0.9-0.5,1.2c-0.4,0.6-0.9,1.1-1.6,1.4
			c-0.1,0.1-0.2,0-0.2-0.1l-0.2-0.5c0-0.1,0-0.2,0.1-0.2c0.2-0.1,0.5-0.2,0.7-0.5c0.3-0.3,0.5-0.6,0.7-1s0.3-0.8,0.3-1.2
			c0.1-0.4,0.1-0.9,0.1-1.6c-0.6,0.1-1,0.2-1.1,0.2s-0.1,0-0.1-0.1l-0.2-0.5c0-0.1,0-0.2,0-0.2c0.3,0,0.8-0.9,1.7-2.4h-1.6
			c-0.1,0-0.2-0.1-0.1-0.2l0.1-0.5c0-0.1,0.1-0.2,0.2-0.2h1.8l0.6-1.3c0-0.1,0.1-0.1,0.2-0.1l0.6,0.3c0.1,0.1,0.1,0.1,0.1,0.2
			l-0.4,0.8h2.9c0.1,0,0.2,0.1,0.1,0.2l-0.1,0.5c0,0.1-0.1,0.2-0.2,0.2H185c-0.5,1-1,1.7-1.4,2.2c-0.1,0.1,0,0.1,0.1,0.1l3.3-0.3
			l-0.7-1.1c-0.1-0.1,0-0.1,0.1-0.1h0.5c0.1,0,0.2,0,0.3,0.2c0.6,0.9,1.1,1.6,1.3,2.2c0,0.1,0,0.1-0.1,0.1l-0.5,0.1
			c-0.1,0-0.2,0-0.3-0.1l-0.3-0.5l-0.9,0.1v4.1c0,0.2,0,0.3,0,0.3C186.5,47.7,186.5,47.7,186.7,47.7z"/>
	</g>
	<g>
		<g>
			<path class="st0" d="M2.6,28c0-14.2,11.6-25.8,25.8-25.8c14.2,0,25.8,11.6,25.8,25.8c0,14.2-11.6,25.8-25.8,25.8
				C14.2,53.8,2.6,42.2,2.6,28z"/>
			<path class="st1" d="M38.1,21.8L38.1,21.8C38.1,21.8,38.1,21.8,38.1,21.8c0.3-1-0.3-2.1-1.3-2.4c-0.7-0.2-1.5,0.1-1.9,0.6l0,0
				c-0.1-0.7-0.6-1.3-1.4-1.5c-1-0.3-2,0.3-2.3,1.3c0,0,0,0,0,0.1l0,0c0,0-0.4,1.1,0.5,2.7c0.4,0.7,0.9,1.5,1.7,2.6
				c1.3-0.6,2.1-0.9,2.8-1.4C37.8,23,38.1,21.8,38.1,21.8z"/>
			<circle class="st2" cx="28.4" cy="28.9" r="16.3"/>
			<g>
				<g>
					<path class="st1" d="M19.2,19.2c-0.2,0-0.3,0.2-0.2,0.3c0.1,0.6,0.6,2.1,1.6,3.3c0.6-0.4,1.3-0.7,2.1-0.8
						c-0.2-0.8-0.1-1.6,0-2.3C21.3,19.2,19.8,19.2,19.2,19.2z"/>
					<path class="st1" d="M24.2,23.1c-0.1,0-0.3,0-0.4,0c-0.8,0-1.5,0.3-2.1,0.6c-0.3,0.2-0.6,0.4-0.8,0.5c0,0,0,0,0,0
						c-0.1,0.1-0.1,0.3,0,0.4c0.3,0.3,1,0.7,1.9,1c0,0,0,0,0,0c0-0.1,0.1-0.1,0.1-0.2c0.2-0.2,0.5-0.4,0.8-0.6
						c0.6-0.3,1.3-0.7,2.1-0.7c-0.2-0.8-0.1-1.5,0-2.1c0.1-0.4,0.2-0.7,0.3-1c0-0.1,0.1-0.1,0.1-0.2c0,0,0,0,0,0
						c-0.5-0.7-1.2-1.2-1.6-1.4c-0.1-0.1-0.3,0-0.4,0.1c0,0,0,0,0,0.1c-0.1,0.2-0.2,0.5-0.3,0.9c-0.1,0.6-0.2,1.4,0.1,2.2
						c0,0.1,0.1,0.2,0.1,0.4C24.3,23,24.3,23,24.2,23.1C24.2,23.1,24.2,23.1,24.2,23.1z"/>
					<path class="st1" d="M27.3,25.2C27.3,25.2,27.3,25.2,27.3,25.2c-0.2,0-0.3,0-0.4,0c-0.6,0-1.1,0.2-1.6,0.4
						c-0.4,0.2-0.8,0.4-1,0.6c-0.1,0.1-0.1,0.1-0.2,0.2c0,0,0,0,0,0c0,0,0,0,0,0.1c0,0.1,0,0.2,0.1,0.3c0,0,0,0,0,0
						c0.3,0.2,0.7,0.5,1.2,0.7c1.5-0.6,3.2-0.6,4.5,0.3c0.6,0.4,0.7,0.5,1,1.1c0,0,1.7-2.1,1.7-2.1c-0.4-0.4-1.2-0.4-2-1.2
						c0,0-0.1-0.1-0.1-0.1l-0.1-0.2L30,25c0-0.4-0.1-0.7-0.2-1.1c-0.4-1.2-1.5-1.9-2-2.3c0,0,0,0,0,0c-0.1-0.1-0.2,0-0.3,0
						c0,0,0,0-0.1,0.1c0,0,0,0,0,0.1c0,0.1-0.1,0.1-0.1,0.2c-0.1,0.3-0.2,0.8-0.3,1.3c0,0.5,0,1,0.2,1.5c0,0.1,0.1,0.2,0.1,0.3
						c0,0,0,0,0,0C27.4,25.2,27.4,25.2,27.3,25.2C27.4,25.2,27.3,25.2,27.3,25.2z"/>
					<path class="st1" d="M18.6,31.2c-0.3,0-0.6,0.3-0.6,0.6c0,0.3,0.3,0.6,0.6,0.6c0.3,0,0.6-0.3,0.6-0.6
						C19.1,31.5,18.9,31.2,18.6,31.2z"/>
					<g>
						<path class="st1" d="M30.7,31.8c-0.1,0.1-0.1,0.1-0.2,0.2c-0.1-0.6-0.2-1.2-0.6-1.7c-0.2-0.4-0.5-0.7-0.9-0.9
							c-1.4-0.9-3.2-0.6-4.7,0.5c-0.4,0.3-0.8,0.8-1.1,1.2c-0.8,1.2-1.1,2.6-0.9,3.8h-1.4c0-0.2-0.1-0.5-0.1-0.8
							c0-0.4,0-0.8,0.1-1.2c0.2-0.9,0.6-1.9,1.2-2.8c0.4-0.6,1-1.2,1.5-1.7c-1.1-1.7-3-2.8-5.1-2.8c-3.4,0-6.1,2.7-6.1,6
							c0,1.2,0.4,2.3,1,3.2h-1.7c-0.4,0-0.8,0.2-1,0.6c-0.2,0.4-0.2,0.8-0.1,1.2c2.1,4.3,5.8,7.7,10.4,9.4v1.5
							c0,0.4,0.3,0.7,0.7,0.7h14.5c0.4,0,0.7-0.3,0.7-0.7v-2.2c3.8-1.9,6.9-5,8.8-8.7c0.2-0.4,0.2-0.8-0.1-1.2
							c-0.2-0.3-0.5-0.5-0.9-0.6h-14V31.8z M20.3,33.8c0,0-0.1,0-0.1,0l-1.3-0.6c-0.1,0-0.2-0.1-0.3-0.1c-0.1,0-0.2,0-0.3,0.1
							l-1.3,0.6c0,0-0.1,0-0.1,0c-0.2,0-0.3-0.2-0.3-0.4l0.6-1.3c0.1-0.2,0.1-0.5,0-0.7l-0.6-1.3c-0.1-0.2,0.1-0.4,0.3-0.4
							c0,0,0.1,0,0.1,0l1.3,0.6c0.1,0,0.2,0.1,0.3,0.1c0.1,0,0.2,0,0.3-0.1l1.3-0.6c0,0,0.1,0,0.1,0c0.2,0,0.3,0.2,0.3,0.4L20,31.4
							c-0.1,0.2-0.1,0.5,0,0.7l0.6,1.3C20.7,33.6,20.5,33.8,20.3,33.8z M28.8,31.7c-0.2,0.1-0.5,0.2-0.8,0.1
							c-0.3-0.1-0.7-0.2-0.9-0.5c-0.5-0.5-0.6-1.1-0.1-1.4c0.4-0.3,1.2-0.1,1.7,0.4c0.3,0.3,0.5,0.6,0.4,0.9
							C29,31.5,28.9,31.6,28.8,31.7z"/>
					</g>
				</g>
				<path class="st1" d="M46.8,28c-0.4-0.9-4.3-2.6-8.2-1.7c-0.4-0.2-0.7-0.4-1.1-0.6c-0.7-0.4-1.6-0.3-2.1,0.3
					c-1.1,1.2-3.8,4.3-5.1,6.4c-2.4,2.4-3.4,3.8-3.4,3.8c-0.4-0.3-0.9-0.5-1.3-0.6c-1-0.2-1.9,0.1-2.4,0.3c-0.1,0-0.2,0.1-0.2,0.3
					c0,0.1,0,0.3,0.1,0.4c0.1,0.1,0.2,0.2,0.3,0.3c0.4,0.6,1,1.3,1.2,1.8c-0.8,1.2-1.5,2.5-1.7,3.6c0,0.1,0,0.2,0.1,0.3
					c0.1,0.1,0.1,0.1,0.2,0.1c0.1,0,0.2,0,0.2,0c1-0.2,2.2-1.5,3.1-2.6c0.8-1,1.3-1.8,1.3-1.8c3.6,0.4,6.6,0.2,9-0.4l1.9-1.8
					c0.1-0.1,0.2-0.1,0.3,0c0.1,0.1,0.1,0.2,0,0.3l-0.7,1.2l-0.4,0.6c-0.1,0.2-0.1,0.5,0.1,0.7c0.1,0.1,0.2,0.2,0.4,0.2
					c0.1,0,0.1,0,0.2,0c0.1,0,0.2,0,0.3,0l2.1-0.3c0.8-0.1,1.3-0.6,1.3-1.2l0-0.2l0.1-1.8C46.5,32.8,47.2,28.8,46.8,28z M43.4,33.2
					c-3.5,0-4.4-3.4-4.4-5.1c0-0.2,0.2-0.4,0.4-0.4c0,0,0,0,0,0c0.2,0,0.4,0.2,0.4,0.4c0,0.2,0.1,4.3,3.5,4.3c0.2,0,0.4,0.2,0.4,0.4
					C43.8,33,43.6,33.2,43.4,33.2z M44.2,29.8c-0.3,0.2-0.7,0-0.9-0.3c-0.2-0.3,0-0.7,0.3-0.9c0.3-0.2,0.7,0,0.9,0.3
					C44.6,29.3,44.5,29.7,44.2,29.8z"/>
			</g>
		</g>
		<g>
			<g>
				<path class="st1" d="M11.3,22.4c0,0.1-0.1,0.1-0.2,0.2c-0.1,0-0.1,0-0.2,0c-0.2-0.1-0.3-0.2-0.4-0.4l-1.1-1.8c0,0,0,0,0,0
					c0,0,0,0,0,0l-0.3,0.7c0,0.1-0.1,0.2-0.2,0.2c-0.1,0-0.2,0-0.3,0s-0.2-0.1-0.2-0.2c0-0.1,0-0.2,0-0.3L9.1,19
					c0-0.1,0.1-0.1,0.2-0.1s0.1,0,0.2,0c0.2,0.1,0.3,0.2,0.4,0.4l1.1,1.8c0,0,0,0,0,0s0,0,0,0l0.4-0.9c0-0.1,0.1-0.2,0.2-0.2
					c0.1,0,0.2,0,0.3,0c0.1,0,0.2,0.1,0.2,0.2c0,0.1,0,0.2,0,0.3L11.3,22.4z"/>
				<path class="st1" d="M13.5,18.6c-0.3,0.4-0.6,0.7-1.1,0.8c-0.4,0.1-0.9,0-1.4-0.3c-0.2-0.2-0.4-0.3-0.5-0.5s-0.2-0.4-0.3-0.6
					c0-0.2,0-0.4,0-0.6c0-0.2,0.1-0.4,0.2-0.6c0.3-0.4,0.6-0.6,1-0.6c0.4,0,0.8,0.1,1.2,0.3c0.1,0.1,0.2,0.2,0.2,0.3
					c0,0.1,0,0.3-0.1,0.4l-0.8,1.2c0,0,0,0,0,0c0,0,0,0,0,0c0.4,0.1,0.7,0,1-0.4c0.1-0.1,0.1-0.2,0.2-0.4c0,0,0-0.1,0.1-0.1
					c0,0,0.1-0.1,0.1-0.1c0.1-0.1,0.2-0.1,0.3-0.1c0.1,0,0.1,0,0.2,0.1s0.1,0.1,0.1,0.1c0,0.1,0,0.1,0,0.2
					C13.7,18,13.6,18.3,13.5,18.6z M11.2,17.9C11.2,17.9,11.2,17.9,11.2,17.9C11.3,17.9,11.3,17.9,11.2,17.9l0.7-0.9c0,0,0,0,0,0
					c0,0,0,0,0,0c-0.1-0.1-0.3-0.1-0.4-0.1c-0.1,0-0.2,0.1-0.3,0.2C11,17.2,11,17.4,11,17.5C11,17.7,11.1,17.9,11.2,17.9z"/>
				<path class="st1" d="M14.9,16.7c-0.1,0.1-0.2,0.2-0.4,0.2c-0.1,0-0.3,0-0.4-0.1L12.4,15c-0.1-0.1-0.1-0.2-0.1-0.3s0-0.2,0.1-0.3
					c0.1-0.1,0.2-0.1,0.3-0.1c0.1,0,0.2,0,0.3,0.1l0.1,0.1c0,0,0,0,0,0c0,0,0,0,0,0c-0.1-0.2-0.1-0.4-0.1-0.6s0.1-0.4,0.2-0.5
					c0,0,0,0,0,0c0.1-0.1,0.2-0.1,0.3-0.1c0.1,0,0.2,0.1,0.2,0.1c0,0,0,0.1,0.1,0.1c0.1,0.1,0.1,0.2,0.1,0.3s-0.1,0.2-0.2,0.4
					c-0.2,0.2-0.2,0.5,0,0.8c0,0,0,0.1,0.1,0.1l1,0.9C15,16,15,16.1,15,16.3S15,16.5,14.9,16.7L14.9,16.7z"/>
				<path class="st1" d="M17.5,14.4c-0.2,0.1-0.4,0.2-0.6,0.3c-0.2,0.1-0.4,0.1-0.6,0c-0.2,0-0.4-0.1-0.6-0.2
					c-0.2-0.1-0.4-0.3-0.6-0.5c-0.2-0.2-0.3-0.4-0.3-0.7s-0.1-0.5,0-0.7c0-0.2,0.1-0.4,0.2-0.6c0.1-0.2,0.3-0.3,0.4-0.5
					c0.2-0.1,0.4-0.2,0.6-0.3c0.2-0.1,0.4-0.1,0.6,0c0.2,0,0.4,0.1,0.6,0.2c0.2,0.1,0.4,0.3,0.6,0.5c0.2,0.2,0.3,0.4,0.3,0.7
					s0.1,0.5,0,0.7c0,0.2-0.1,0.4-0.2,0.6C17.8,14.1,17.7,14.2,17.5,14.4z M17,13.7c0.2-0.1,0.2-0.3,0.2-0.5s-0.1-0.4-0.3-0.6
					c-0.2-0.2-0.4-0.4-0.5-0.5s-0.3-0.1-0.5,0.1c-0.2,0.1-0.2,0.3-0.2,0.5c0,0.2,0.1,0.4,0.3,0.6c0.2,0.2,0.4,0.4,0.5,0.5
					C16.7,13.8,16.8,13.8,17,13.7z"/>
				<path class="st1" d="M19.7,12.8c-0.1,0.1-0.3,0.1-0.4,0c-0.1,0-0.2-0.1-0.3-0.3l-1.6-3.4c-0.1-0.1-0.1-0.3,0-0.4
					c0-0.1,0.1-0.2,0.3-0.3l0,0c0.1-0.1,0.3-0.1,0.4,0c0.1,0,0.2,0.1,0.3,0.3l0.3,0.6l0.2,0.5c0,0,0,0,0,0c0,0,0,0,0,0
					C19,9.4,19.3,9.2,19.6,9c0.3-0.2,0.6-0.2,0.9,0s0.5,0.4,0.7,0.8l0.7,1.4c0.1,0.1,0.1,0.3,0,0.4c0,0.1-0.1,0.2-0.3,0.3l0,0
					c-0.1,0.1-0.3,0.1-0.4,0c-0.1,0-0.2-0.1-0.3-0.3l-0.6-1.3C20.1,10.2,20,10,19.9,10c-0.1-0.1-0.2,0-0.3,0c-0.1,0-0.2,0.1-0.2,0.2
					c-0.1,0.1-0.1,0.2-0.2,0.3c0,0,0,0.1,0,0.1l0.7,1.5c0.1,0.1,0.1,0.3,0,0.4C19.9,12.7,19.8,12.8,19.7,12.8L19.7,12.8z"/>
				<path class="st1" d="M23.6,11.3c-0.4,0.1-0.6,0-0.9-0.2c-0.2-0.2-0.4-0.5-0.5-0.9l-0.4-1.6c0-0.1,0-0.3,0.1-0.4
					c0.1-0.1,0.2-0.2,0.3-0.2l0,0c0.1,0,0.3,0,0.4,0.1s0.2,0.2,0.2,0.3l0.3,1.4c0.1,0.2,0.1,0.4,0.2,0.4c0.1,0.1,0.2,0.1,0.3,0.1
					c0.1,0,0.2-0.1,0.3-0.1c0.1-0.1,0.1-0.2,0.2-0.3c0,0,0-0.1,0-0.1l-0.4-1.6c0-0.1,0-0.3,0.1-0.4c0.1-0.1,0.2-0.2,0.3-0.2l0,0
					c0.1,0,0.3,0,0.4,0.1c0.1,0.1,0.2,0.2,0.2,0.3l0.6,2.4c0,0.1,0,0.2,0,0.3s-0.2,0.2-0.3,0.2l0,0c-0.1,0-0.2,0-0.3,0
					c-0.1-0.1-0.2-0.1-0.2-0.3l0,0c0,0,0,0,0,0c0,0,0,0,0,0c-0.1,0.2-0.2,0.4-0.4,0.5C24,11.2,23.8,11.3,23.6,11.3z"/>
				<path class="st1" d="M26.8,10.7c-0.1,0-0.3,0-0.4-0.1c-0.1-0.1-0.2-0.2-0.2-0.4l-0.1-2.5c0-0.1,0-0.2,0.1-0.3
					c0.1-0.1,0.2-0.1,0.3-0.1l0,0c0.1,0,0.2,0,0.3,0.1s0.1,0.2,0.2,0.3l0,0c0,0,0,0,0,0s0,0,0,0c0.3-0.3,0.7-0.5,1.1-0.5
					c0.4,0,0.6,0.1,0.8,0.3c0.2,0.2,0.3,0.6,0.3,1l0.1,1.6c0,0.1,0,0.3-0.1,0.4s-0.2,0.2-0.4,0.2l0,0c-0.1,0-0.3,0-0.4-0.1
					s-0.2-0.2-0.2-0.4l-0.1-1.5c0-0.2,0-0.4-0.1-0.5C28.1,8.1,28,8,27.8,8c-0.1,0-0.2,0-0.3,0.1s-0.2,0.1-0.3,0.2c0,0,0,0.1,0,0.1
					l0.1,1.7c0,0.1,0,0.3-0.1,0.4C27.1,10.6,27,10.7,26.8,10.7L26.8,10.7z"/>
				<path class="st1" d="M31,12.3c-0.3,0-0.5-0.1-0.7-0.2c-0.2-0.1-0.4-0.2-0.5-0.4c-0.1-0.2-0.1-0.3-0.1-0.5c0-0.3,0.2-0.5,0.6-0.6
					c0,0,0,0,0,0c0,0,0,0,0,0c-0.2-0.2-0.2-0.4-0.2-0.6c0-0.1,0.1-0.2,0.2-0.3c0.1-0.1,0.2-0.2,0.3-0.2c0,0,0,0,0,0c0,0,0,0,0,0
					c-0.1-0.1-0.2-0.3-0.3-0.4c-0.1-0.2-0.1-0.3,0-0.5c0-0.3,0.1-0.5,0.3-0.6c0.2-0.2,0.4-0.3,0.6-0.3c0.2-0.1,0.5-0.1,0.7,0
					c0.2,0,0.3,0.1,0.5,0.1c0,0,0.1,0,0.1,0l0.8,0.1c0.1,0,0.2,0.1,0.3,0.2s0.1,0.2,0.1,0.3c0,0.1-0.1,0.2-0.2,0.3
					c-0.1,0.1-0.2,0.1-0.3,0.1l-0.1,0c0,0,0,0,0,0s0,0,0,0c0,0.1,0,0.2,0,0.4c-0.1,0.4-0.2,0.6-0.5,0.8c-0.3,0.2-0.6,0.2-1,0.1
					c-0.1,0-0.2-0.1-0.3-0.1c0,0-0.1,0-0.1,0c-0.1,0-0.1,0.1-0.1,0.2c0,0.1,0,0.1,0.1,0.2c0.1,0,0.2,0.1,0.4,0.1l0.5,0.1
					c0.9,0.1,1.2,0.5,1.2,1.1c-0.1,0.4-0.3,0.6-0.7,0.8S31.6,12.4,31,12.3z M31.2,11.6c0.2,0,0.4,0,0.5,0c0.1,0,0.2-0.1,0.2-0.2
					c0-0.1,0-0.2-0.1-0.2c-0.1,0-0.2-0.1-0.4-0.1L31.3,11c-0.2,0-0.3-0.1-0.4-0.1c0,0,0,0,0,0c0,0-0.1,0-0.1,0
					c-0.1,0.1-0.1,0.1-0.2,0.2c0,0.1,0,0.2,0.2,0.3C30.9,11.5,31,11.6,31.2,11.6z M31.6,9.2c0.1,0,0.2,0,0.3-0.1
					C32,9,32.1,8.9,32.1,8.7c0-0.2,0-0.3-0.1-0.4c-0.1-0.1-0.2-0.2-0.3-0.2c-0.1,0-0.2,0-0.3,0.1c-0.1,0.1-0.2,0.2-0.2,0.4
					c0,0.2,0,0.3,0.1,0.4C31.3,9.1,31.4,9.1,31.6,9.2z"/>
				<path class="st1" d="M34.8,11.8c-0.5-0.2-0.8-0.5-1-0.9s-0.2-0.9,0-1.4c0.1-0.3,0.2-0.5,0.4-0.7s0.3-0.3,0.5-0.4
					c0.2-0.1,0.4-0.1,0.6-0.2s0.4,0,0.6,0.1c0.4,0.2,0.7,0.4,0.9,0.8c0.1,0.4,0.1,0.8,0,1.2c0,0.1-0.1,0.2-0.3,0.3
					c-0.1,0.1-0.3,0.1-0.4,0l-1.4-0.5c0,0,0,0,0,0c0,0,0,0,0,0c0,0.4,0.2,0.7,0.6,0.9c0.1,0,0.3,0.1,0.4,0.1c0,0,0.1,0,0.2,0
					c0,0,0.1,0,0.1,0.1c0.1,0.1,0.1,0.1,0.2,0.2c0,0.1,0,0.1,0,0.2s-0.1,0.1-0.1,0.2c-0.1,0-0.1,0.1-0.2,0.1
					C35.4,12,35.1,11.9,34.8,11.8z M34.9,9.5C34.8,9.5,34.8,9.5,34.9,9.5C34.9,9.6,34.9,9.6,34.9,9.5l1,0.4c0,0,0,0,0,0c0,0,0,0,0,0
					c0-0.2,0-0.3,0-0.4c-0.1-0.1-0.2-0.2-0.3-0.3c-0.1-0.1-0.3-0.1-0.4,0C35,9.3,34.9,9.4,34.9,9.5z"/>
				<path class="st1" d="M37,12.7c-0.1-0.1-0.2-0.2-0.2-0.3c0-0.1,0-0.3,0-0.4L38,9.9c0.1-0.1,0.1-0.2,0.3-0.2c0.1,0,0.2,0,0.3,0
					c0.1,0.1,0.2,0.2,0.2,0.3c0,0.1,0,0.2,0,0.3l-0.1,0.1c0,0,0,0,0,0c0,0,0,0,0,0c0.2-0.1,0.4-0.2,0.6-0.2c0.2,0,0.4,0,0.5,0.1
					c0,0,0,0,0,0c0.1,0.1,0.2,0.1,0.2,0.3c0,0.1,0,0.2-0.1,0.3c0,0,0,0.1-0.1,0.1c-0.1,0.1-0.2,0.1-0.3,0.1c-0.1,0-0.3,0-0.4-0.1
					c-0.3-0.1-0.5,0-0.8,0.2c0,0-0.1,0.1-0.1,0.1l-0.7,1.2c-0.1,0.1-0.2,0.2-0.3,0.2C37.3,12.8,37.1,12.8,37,12.7L37,12.7z"/>
				<path class="st1" d="M39.7,12.8c-0.1-0.1-0.1-0.1-0.1-0.2c0-0.1,0-0.2,0.1-0.3c0.1-0.1,0.1-0.1,0.2-0.1c0.1,0,0.2,0,0.3,0.1
					l0.8,0.6C41,12.8,41,12.9,41,13c0,0.1,0,0.2-0.1,0.3s-0.1,0.1-0.2,0.2c-0.1,0-0.2,0-0.3-0.1L39.7,12.8z"/>
				<path class="st1" d="M41.4,16.1c-0.4-0.3-0.5-0.7-0.5-1.2c0-0.5,0.2-0.9,0.6-1.3c0.3-0.3,0.5-0.4,0.9-0.5s0.6-0.1,0.9,0
					c0.3,0.1,0.5,0.2,0.8,0.5c0.2,0.2,0.3,0.3,0.4,0.5c0,0.1,0,0.2,0,0.3c0,0,0,0,0,0.1c-0.1,0.1-0.1,0.1-0.2,0.1l0,0
					c-0.1,0-0.3,0-0.4-0.1c0,0-0.1-0.1-0.1-0.1c0,0,0-0.1-0.1-0.1c-0.2-0.2-0.4-0.2-0.6-0.2c-0.2,0-0.4,0.1-0.6,0.3
					c-0.2,0.2-0.3,0.4-0.3,0.6c0,0.2,0,0.4,0.2,0.5c0.1,0.1,0.1,0.1,0.2,0.1c0.1,0,0.1,0.1,0.2,0.1c0,0,0.1,0.1,0.1,0.1
					c0.1,0.1,0.1,0.2,0,0.3c0,0.1-0.1,0.2-0.1,0.2c0,0,0,0-0.1,0.1c-0.1,0.1-0.2,0.1-0.3,0C41.8,16.5,41.6,16.3,41.4,16.1z"/>
				<path class="st1" d="M43.2,18.3c-0.1-0.2-0.2-0.4-0.3-0.6c-0.1-0.2-0.1-0.4,0-0.6s0.1-0.4,0.2-0.6c0.1-0.2,0.3-0.4,0.5-0.6
					c0.2-0.2,0.5-0.3,0.7-0.3c0.2-0.1,0.5-0.1,0.7,0c0.2,0,0.4,0.1,0.6,0.2c0.2,0.1,0.3,0.3,0.5,0.4c0.1,0.2,0.2,0.4,0.3,0.6
					c0,0.2,0.1,0.4,0,0.6c0,0.2-0.1,0.4-0.2,0.6c-0.1,0.2-0.3,0.4-0.5,0.6c-0.2,0.2-0.5,0.3-0.7,0.3c-0.2,0.1-0.5,0.1-0.7,0
					c-0.2,0-0.4-0.1-0.6-0.2C43.5,18.6,43.4,18.5,43.2,18.3z M43.9,17.8C44,18,44.2,18,44.4,18c0.2,0,0.4-0.1,0.6-0.3
					s0.4-0.3,0.5-0.5c0.1-0.2,0.1-0.3-0.1-0.5c-0.1-0.2-0.3-0.2-0.5-0.2c-0.2,0-0.4,0.1-0.6,0.3c-0.2,0.2-0.4,0.3-0.5,0.5
					C43.8,17.5,43.8,17.6,43.9,17.8z"/>
				<path class="st1" d="M44.7,20.8c-0.1-0.3-0.1-0.5,0-0.8c0.1-0.3,0.3-0.4,0.6-0.6c0.3-0.1,0.6-0.1,0.9,0c0.3,0.2,0.6,0.5,1,1.1
					c0,0,0,0,0.1,0c0.2-0.1,0.3-0.3,0.1-0.6c-0.1-0.1-0.2-0.3-0.3-0.4c0,0-0.1-0.1-0.1-0.1c0,0,0-0.1,0-0.1c0-0.1,0-0.2,0.1-0.3
					c0-0.1,0.1-0.1,0.2-0.1c0,0,0.1,0,0.1,0c0.1,0,0.2,0,0.3,0.1c0.3,0.3,0.6,0.6,0.7,0.9c0.4,0.8,0.1,1.5-0.8,1.9L46,22.4
					c-0.1,0.1-0.2,0.1-0.3,0c-0.1,0-0.2-0.1-0.2-0.2L45.4,22c0-0.1,0-0.2,0-0.3c0-0.1,0.1-0.2,0.1-0.2l0,0c0,0,0,0,0,0c0,0,0,0,0,0
					C45.1,21.3,44.9,21.1,44.7,20.8z M45.6,20.8c0.1,0.1,0.2,0.3,0.4,0.3c0,0,0.1,0,0.1,0l0.4-0.2c0,0,0,0,0,0c0,0,0,0,0,0l0,0
					c-0.3-0.5-0.6-0.6-0.8-0.5c-0.1,0-0.1,0.1-0.2,0.2C45.6,20.6,45.6,20.7,45.6,20.8z"/>
			</g>
		</g>
		<g>
			<path class="st1" d="M47.9,23.1L47.9,23.1C47.9,23.1,48,23.1,47.9,23.1c0.4,0,0.8,0.3,0.8,0.7c0,0.3-0.2,0.6-0.4,0.7l0,0
				c0.3,0.1,0.5,0.4,0.5,0.7c0,0.4-0.3,0.8-0.7,0.8c0,0,0,0,0,0l0,0c0,0-0.5,0.1-1-0.5c-0.2-0.2-0.5-0.5-0.9-0.9
				c0.4-0.5,0.6-0.7,0.8-1C47.5,23,47.9,23.1,47.9,23.1z"/>
		</g>
		<g>
			<path class="st1" d="M8.9,23.1L8.9,23.1C8.9,23.1,8.9,23.1,8.9,23.1c-0.4,0-0.8,0.3-0.8,0.7c0,0.3,0.2,0.6,0.4,0.7l0,0
				c-0.3,0.1-0.5,0.4-0.5,0.7c0,0.4,0.3,0.8,0.7,0.8c0,0,0,0,0,0l0,0c0,0,0.5,0.1,1-0.5c0.2-0.2,0.5-0.5,0.9-0.9
				c-0.4-0.5-0.6-0.7-0.8-1C9.4,23,8.9,23.1,8.9,23.1z"/>
		</g>
	</g>
</g>
</svg>
