<?xml version="1.0" encoding="utf-8"?>
<!-- Generator: Adobe Illustrator 24.1.0, SVG Export Plug-In . SVG Version: 6.00 Build 0)  -->
<svg version="1.1" id="圖層_1" xmlns="http://www.w3.org/2000/svg" xmlns:xlink="http://www.w3.org/1999/xlink" x="0px" y="0px"
	 viewBox="0 0 71 41" style="enable-background:new 0 0 71 41;" xml:space="preserve">
<style type="text/css">
	.st0{fill:#29AAE1;}
	.st1{fill:#FFFFFF;}
</style>
<g>
	<g>
		<path class="st0" d="M66.5,40.5H4.5c-2.2,0-4-1.8-4-4V4.5c0-2.2,1.8-4,4-4h62.1c2.2,0,4,1.8,4,4v32.1
			C70.5,38.7,68.7,40.5,66.5,40.5z"/>
	</g>
	<g>
		<path class="st1" d="M24.6,15.5h-2.2c-0.3,1.5-0.6,2.7-1,3.8h3v9h-1.5v-0.8h-1.2v1.2h-1.5V22c-0.3,0.5-0.6,0.9-0.8,1.2l-0.8-1.7
			c1-1.4,1.8-3.4,2.3-6h-2V14h5.8V15.5z M22.8,26v-5.2h-1.2V26H22.8z M34.4,28.2h-6.8v0.9H26v-7.9c-0.2,0.2-0.6,0.4-1,0.8l-0.6-1.5
			c1.6-1.3,2.8-2.8,3.4-4.3h-1.3v2H25v-3.4h3.4c0.1-0.3,0.3-0.8,0.5-1.6l1.5,0.3c-0.1,0.4-0.2,0.8-0.4,1.3h4.1v3.4h-1.5v-1.9h-3.1
			c-0.5,1.1-1,2.1-1.6,3h1.9c-0.1-0.4-0.2-0.8-0.5-1.4l1.4-0.4c0.2,0.5,0.4,1.1,0.6,1.8h2.9v1.3h-2.9v1.2h2.6V23h-2.6v1.3h2.6v1.3
			h-2.6v1.3h3.1V28.2z M29.8,21.6v-1.2h-2.3v1.2H29.8z M29.8,24.3V23h-2.3v1.3H29.8z M29.8,26.9v-1.3h-2.3v1.3H29.8z"/>
		<path class="st1" d="M52.7,27.3l-0.4,1.6c-0.6,0-1.3,0-2,0c-2.6,0-4.3-0.1-5.2-0.2s-1.7-0.4-2.5-0.8s-1.5-1.1-2.2-2.1
			c-0.6,1.2-1.4,2.4-2.4,3.4l-1.3-1c1.8-1.8,2.9-4.1,3.3-7l1.6,0.2c-0.1,0.9-0.3,1.7-0.6,2.6c0.8,1.5,1.9,2.5,3.1,2.9V20h-4.8v-1.5
			h10.5V20h-4v2.3h5.5v1.5h-5.5v3.3c1.4,0.1,2.9,0.2,4.5,0.2C51.1,27.3,51.9,27.3,52.7,27.3z M52,19.2h-1.6v-2.7H38.8v2.7h-1.7V15
			h6.6c-0.2-0.5-0.5-0.9-0.8-1.4l1.6-0.4c0.4,0.5,0.7,1.1,1,1.8H52V19.2z"/>
	</g>
</g>
</svg>
