<?xml version="1.0" encoding="utf-8"?>
<!-- Generator: Adobe Illustrator 24.1.0, SVG Export Plug-In . SVG Version: 6.00 Build 0)  -->
<svg version="1.1" id="圖層_1" xmlns="http://www.w3.org/2000/svg" xmlns:xlink="http://www.w3.org/1999/xlink" x="0px" y="0px"
	 viewBox="0 0 71 41" style="enable-background:new 0 0 71 41;" xml:space="preserve">
<style type="text/css">
	.st0{fill:#CBCBCB;}
	.st1{enable-background:new    ;}
	.st2{fill:#FFFFFF;}
</style>
<g>
	<g>
		<path class="st0" d="M66.5,40.5h-62c-2.2,0-4-1.8-4-4v-32c0-2.2,1.8-4,4-4h62.1c2.2,0,4,1.8,4,4v32.1
			C70.5,38.7,68.7,40.5,66.5,40.5z"/>
	</g>
	<g class="st1">
		<path class="st2" d="M34.5,28.1l-1.1,1.1c-1.3-1.1-2.3-2.2-3-3.1c-0.8,1-1.8,2-3.1,3.1l-1.2-1.1c1.5-1.2,2.6-2.3,3.4-3.3
			c-1.3-2.1-2.1-4.8-2.4-8.2h-0.4v-1.2h-0.9v13.7h-1.5v-3c-1.7,0.6-3.4,1-5.2,1.4l-0.6-1.5c0.4,0,0.9-0.1,1.4-0.2V15.3h-1.2v-1.5H27
			v1.1h6.8c-0.2,4.4-1,7.7-2.4,9.9C32.1,25.8,33.1,26.9,34.5,28.1z M24.3,17.5v-2.2h-2.8v2.2H24.3z M24.3,21.2V19h-2.8v2.2H24.3z
			 M24.3,24.5v-1.8h-2.8v2.6C22.6,25.1,23.5,24.8,24.3,24.5z M32.1,16.5h-3.4c0.3,2.7,0.9,4.9,1.8,6.7
			C31.3,21.4,31.9,19.2,32.1,16.5z"/>
		<path class="st2" d="M40.9,20l-1,1.3c-1-0.9-2.1-1.6-3.2-2.2l1-1.3C38.8,18.4,39.9,19.1,40.9,20z M41.1,23.2c-0.8,2.3-1.8,4.3-3,6
			l-1.4-0.9c1.1-1.6,2.1-3.6,3-6L41.1,23.2z M41.1,15.9L40,17.1c-0.9-1-2-1.9-3.2-2.6l1.2-1.2C39.1,14,40.2,14.9,41.1,15.9z
			 M51.9,27.1c0,0.8-0.2,1.3-0.5,1.6s-1,0.3-2,0.3c-0.4,0-0.7,0-0.9,0l-0.6-1.5c1,0,1.6,0,2,0c0.3,0,0.5-0.2,0.5-0.4V25
			c-1.9,0.5-4,1-6.1,1.4l-0.5-1c-0.3,1.5-0.9,2.7-1.7,3.6l-1.3-1c0.5-0.5,0.8-1.1,1.1-1.9c0.3-0.8,0.5-2.1,0.5-3.7v-3.7h4v-5.3h1.6
			v5.3h4V27.1z M45.2,17.4l-1.4,0.8c-0.7-1.4-1.5-2.6-2.3-3.6l1.4-0.8C43.9,15.1,44.7,16.4,45.2,17.4z M50.3,23.5v-3.4h-6.5v1.1
			c1.9,0.1,3.7,0.3,5.5,0.5l-0.4,1.5c-1.5-0.3-3.2-0.5-5.1-0.6c0,0.7,0,1.5-0.1,2.3C46,24.6,48.2,24.1,50.3,23.5z M52.4,14.4
			c-0.4,1.2-1.1,2.5-2,3.9l-1.5-0.7c0.8-1.2,1.5-2.4,2-3.8L52.4,14.4z"/>
	</g>
</g>
</svg>
